<?xml version="1.0" encoding="utf-8"?>
<!-- Generator: Adobe Illustrator 19.0.0, SVG Export Plug-In . SVG Version: 6.00 Build 0)  -->
<svg version="1.1" id="Layer_1" xmlns="http://www.w3.org/2000/svg" xmlns:xlink="http://www.w3.org/1999/xlink" x="0px" y="0px"
	 viewBox="200 200 900 400" fill="#2068dd" style="enable-background:new 0 0 1280 800;" xml:space="preserve">
<g>
	<path d="M294.9,389c0.1-28,17.5-53.4,43.9-64c25.8-10.4,54.9-4.1,74.7,17c18.4,19.6,23.5,42.7,15.4,68.4c-2,6.4-8.6,9.9-14.5,8.1
		c-6.2-1.8-10-8.4-8.3-14.9c4.8-18.9,1.4-35.3-13.7-48.5c-13.1-11.4-33.2-13.7-48.7-5.8c-15.7,8.1-25.4,25.5-23.9,42.8
		c2.1,24.6,21.6,41.8,46.1,41c8.5-0.3,14.3,4.3,14.6,11.5c0.3,7.3-4.9,12.5-13.3,13.1c-27.4,2.1-55.9-15.8-66.7-42.7
		c-3.3-8.2-4.6-17.2-6.8-25.8C294,389.2,294.4,389.1,294.9,389z"/>
	<path d="M537.5,374.9c7.5-7.7,16.2-12.6,27.1-13.3c22-1.3,41.4,15.7,42,37.7c0.5,16.6,0.2,33.3,0.1,50c0,6.5-4.2,10.9-9.9,10.8
		c-5.7,0-9.6-4.3-9.7-11c-0.1-16.3,0.1-32.7-0.2-49c-0.1-8.7-4.9-14.8-12.9-17.8c-7.9-3-15.1-1.2-21.2,4.7
		c-4.5,4.3-5.9,9.8-5.9,15.9c0.1,15.7,0.1,31.3,0,47c0,5.2-3,9.1-7.3,10.1c-4.3,1-9-1-10.8-5.1c-0.9-2-1.1-4.5-1.2-6.8
		c-0.1-14.5,0-29-0.1-43.5c0-3.3-0.2-6.7-1.2-9.9c-2.6-8.9-11.6-14.6-20.8-13.6c-9.6,1-17.4,8.5-17.7,18c-0.4,15.5-0.2,31-0.3,46.5
		c0,1.8,0.1,3.7-0.1,5.5c-0.7,5.6-4.8,9.3-10,9.1c-5.2-0.2-9.4-4.2-9.4-9.8c-0.1-17.3-0.7-34.7,0.2-52c0.9-16.1,9.7-28,24.7-34
		c15-6,29.1-3.3,41.3,7.6C535.3,373,536.3,373.9,537.5,374.9z"/>
	<path d="M836.3,420.3c5.1,16.2,22.8,24.1,40.2,18.3c3-1,5.8-2.5,8.6-4c5.4-2.9,9.7-2,13.1,2.7c3,4.1,2.3,9.1-2.2,12.8
		c-6.4,5.3-14,8.4-22.2,9.4c-20.7,2.5-38.1-3.6-50.2-21c-11-15.8-11.9-32.9-3.6-50.2c9.7-20,33.2-31.1,54.3-26.1
		c23.8,5.6,38.8,23.7,39.1,47.2c0.1,6.7-3.9,10.7-11,10.7c-21,0.1-42,0-63,0C838.6,420.1,837.6,420.2,836.3,420.3z M892,400.6
		c-2.7-12.3-15-20.4-29.2-19.8c-12.6,0.5-24.7,9.7-26,19.8C855,400.6,873.3,400.6,892,400.6z"/>
	<path d="M775.4,400.6c10.6,12.7,20.8,25,31,37.3c1.6,1.9,3.3,3.8,4.7,5.8c3.3,4.8,2.5,10.4-1.8,13.8c-4.2,3.2-9.5,2.7-13.3-1.8
		c-11.3-13.4-22.4-26.8-33.7-40.3c-1.1-1.3-2.1-2.5-3.3-3.8c-4.6,1.4-6.6,4.1-6.4,9.1c0.4,8.8,0.2,17.7,0.1,26.5
		c0,7.7-3.9,12.5-10,12.4c-5.8-0.1-9.6-4.8-9.6-12.2c0-40.8,0-81.7,0-122.5c0-7.8,3.8-12.5,9.9-12.3c6,0.1,9.7,4.7,9.7,12.1
		c0,20.3,0,40.7,0,61c0,1.8,0,3.6,0,6.1c1.9-1.1,3.2-1.7,4.4-2.5c12.3-8,24.5-16.1,36.8-24.1c1.4-0.9,2.8-1.8,4.2-2.7
		c5.3-2.9,10.8-1.8,13.6,2.7c2.8,4.5,1.6,10.2-3.3,13.5c-9.2,6.2-18.6,12.3-28,18.4C778.9,398.1,777.4,399.2,775.4,400.6z"/>
	<path d="M699.2,450.7c-16.1,10.9-33.2,12.1-50.7,4.2c-31.6-14.3-37.5-58.5-11-80.9c16.1-13.5,34.1-16.6,53.1-8
		c18.9,8.5,27.8,24.5,28.3,45.1c0.3,11.8,0.1,23.6,0.1,35.5c0,7.9-2.2,11.5-7.7,12.7C706.2,460.5,702.3,457.7,699.2,450.7z
		 M670.5,440.4c16.4,0,29.2-12.7,29.2-29.1c0-16.8-13.2-30.5-29.3-30.4c-16.3,0.1-30.3,14-30.4,30.3
		C639.9,427.3,653.6,440.4,670.5,440.4z"/>
	<path d="M926.6,428.9c0.8-10.1,0.5-20.4,2.6-30.2c4.6-21.3,24.5-36.8,46.2-37.3c6.1-0.2,10.8,3.6,11.2,9c0.4,5.3-3.8,9.8-9.9,10.5
		c-20.1,2.4-29.8,13.3-29.8,33.4c0,11.3,0,22.6,0,34c0,7.1-3.8,11.6-9.5,11.8c-6,0.2-10-4.4-10.2-11.7c0-0.2,0-0.3,0-0.5
		c0-6.3,0-12.7,0-19C927.1,428.9,926.8,428.9,926.6,428.9z"/>
	<path d="M413.7,466.8c-2.8-1.6-6-2.7-8.4-4.8c-5.8-5.3-11.2-10.9-16.6-16.6c-6-6.3-4.9-13.9,2.7-21.4c6.2-6.1,14.1-6.4,20-0.7
		c5.5,5.3,10.9,10.8,16.2,16.3c5.2,5.4,5.3,11.9,0.3,17.4C424.1,461.1,420.7,466,413.7,466.8z"/>
</g>
</svg>
